<?xml version="1.0" encoding="UTF-8"?>
<svg xmlns="http://www.w3.org/2000/svg" xmlns:xlink="http://www.w3.org/1999/xlink" viewBox="0 0 25 25" width="25px" height="25px">
<g id="surface148912071">
<path style=" stroke:none;fill-rule:nonzero;fill:rgb(100%,100%,100%);fill-opacity:1;" d="M 21.019531 6.929688 C 21.886719 7.789062 22 9.15625 22 12.5 C 22 15.84375 21.886719 17.210938 21.019531 18.070312 C 20.15625 18.933594 19.253906 19 12.5 19 C 5.746094 19 4.84375 18.933594 3.980469 18.070312 C 3.113281 17.210938 3 15.84375 3 12.5 C 3 9.15625 3.113281 7.789062 3.980469 6.929688 C 4.84375 6.066406 5.746094 6 12.5 6 C 19.253906 6 20.15625 6.066406 21.019531 6.929688 Z M 10.878906 15.464844 L 15.738281 12.652344 L 10.878906 9.878906 Z M 10.878906 15.464844 "/>
</g>
</svg>
