<svg width="14" height="19" viewBox="0 0 14 19" fill="none" xmlns="http://www.w3.org/2000/svg"><path fill-rule="evenodd" clip-rule="evenodd" d="M11.5955 2.33524C10.3935 1.15167 8.79078 0.5 7.07994 0.5C3.78536 0.5 0.499721 3.03152 0.499721 7.74727C0.499721 8.78002 0.886839 9.93344 1.42632 11.0526C1.97045 12.1814 2.69347 13.3234 3.41623 14.3461C4.81165 16.3207 6.23446 17.8905 6.45016 18.1239C6.61182 18.329 6.85086 18.4152 7.06236 18.4152C7.29842 18.4152 7.51564 18.3128 7.67361 18.1439C7.80694 18.0013 9.28157 16.3762 10.7265 14.3243C11.4491 13.2983 12.1718 12.1549 12.7158 11.0292C13.2548 9.91379 13.6426 8.76687 13.6426 7.74727C13.6426 5.57277 12.9387 3.66919 11.597 2.33675L11.5955 2.33523L11.5955 2.33524ZM10.8931 3.04705C12.0112 4.15789 12.6426 5.7874 12.6426 7.74727C12.6426 8.54136 12.3319 9.52527 11.8154 10.5941C11.3039 11.6527 10.6142 12.7471 9.90894 13.7485C8.70173 15.4628 7.4712 16.8736 7.07078 17.3203C6.6693 16.8755 5.43934 15.4762 4.23289 13.769C3.52785 12.7713 2.83846 11.6791 2.32712 10.6184C1.81112 9.54792 1.49972 8.5564 1.49972 7.74727C1.49972 3.59196 4.32945 1.5 7.07994 1.5C8.53185 1.5 9.88107 2.05091 10.8931 3.04705ZM7.07108 5.49656C8.08856 5.49656 8.90625 6.30703 8.90625 7.31203C8.90625 8.32153 8.08404 9.14358 7.07108 9.14358C6.05361 9.14358 5.23592 8.33312 5.23592 7.32811C5.23592 6.31861 6.05813 5.49656 7.07108 5.49656ZM9.90625 7.31203C9.90625 5.74429 8.63034 4.49656 7.07108 4.49656C5.50731 4.49656 4.23592 5.76487 4.23592 7.32811C4.23592 8.89585 5.51183 10.1436 7.07108 10.1436C8.63486 10.1436 9.90625 8.87528 9.90625 7.31203Z" fill="#252525"></path></svg>