<svg width="14" height="18" viewBox="0 0 14 18" fill="none" xmlns="http://www.w3.org/2000/svg"><path fill-rule="evenodd" clip-rule="evenodd" d="M1.75 1.5C1.67144 1.5 1.60331 1.52919 1.55892 1.57019C1.51586 1.60996 1.5 1.65501 1.5 1.69272V16.0666L6.74931 13.036C6.90399 12.9467 7.09457 12.9466 7.24926 13.0359L12.5 16.0667V1.69272C12.5 1.655 12.4841 1.60996 12.4411 1.57019C12.3967 1.52919 12.3286 1.5 12.25 1.5H1.75ZM0.880421 0.835593C1.11733 0.616775 1.43073 0.5 1.75 0.5H12.25C12.5693 0.5 12.8827 0.616775 13.1196 0.835593C13.3578 1.05564 13.5 1.363 13.5 1.69272V16.9326C13.5 17.1112 13.4047 17.2763 13.25 17.3656C13.0953 17.4549 12.9048 17.4549 12.75 17.3656L6.99934 14.0463L1.24999 17.3656C1.09529 17.4549 0.904696 17.4549 0.749997 17.3656C0.595298 17.2763 0.5 17.1112 0.5 16.9326V1.69272C0.5 1.36299 0.642174 1.05564 0.880421 0.835593Z" fill="#252525"></path><path fill-rule="evenodd" clip-rule="evenodd" d="M13 5.48315H1V4.48315H13V5.48315Z" fill="#252525"></path></svg>