<svg width="18" height="17" viewBox="0 0 18 17" fill="none" xmlns="http://www.w3.org/2000/svg"><path fill-rule="evenodd" clip-rule="evenodd" d="M16 1.00244H2V15.9892H16V1.00244ZM2 0.00244141C1.44772 0.00244141 1 0.450156 1 1.00244V15.9892C1 16.5415 1.44772 16.9892 2 16.9892H16C16.5523 16.9892 17 16.5415 17 15.9892V1.00244C17 0.450157 16.5523 0.00244141 16 0.00244141H2Z" fill="#252525"></path><path d="M0 1.02734C0 0.47506 0.447715 0.0273438 1 0.0273438H17C17.5523 0.0273438 18 0.475059 18 1.02734V1.60109C18 2.15338 17.5523 2.60109 17 2.60109H1C0.447716 2.60109 0 2.15338 0 1.60109V1.02734Z" fill="white"></path><path fill-rule="evenodd" clip-rule="evenodd" d="M17 1.02734H1V1.60109L17 1.60109V1.02734ZM1 0.0273438C0.447715 0.0273438 0 0.475059 0 1.02734V1.60109C0 2.15338 0.447716 2.60109 1 2.60109H17C17.5523 2.60109 18 2.15338 18 1.60109V1.02734C18 0.475059 17.5523 0.0273438 17 0.0273438H1Z" fill="#252525"></path><path fill-rule="evenodd" clip-rule="evenodd" d="M6 8.49609C5.72386 8.49609 5.5 8.71995 5.5 8.99609V15.9899C5.5 16.266 5.27614 16.4899 5 16.4899C4.72386 16.4899 4.5 16.266 4.5 15.9899V8.99609C4.5 8.16767 5.17157 7.49609 6 7.49609H12C12.8284 7.49609 13.5 8.16767 13.5 8.99609V15.9899C13.5 16.266 13.2761 16.4899 13 16.4899C12.7239 16.4899 12.5 16.266 12.5 15.9899V8.99609C12.5 8.71995 12.2761 8.49609 12 8.49609H6Z" fill="#252525"></path><path fill-rule="evenodd" clip-rule="evenodd" d="M9 7.99585C9.27614 7.99585 9.5 8.21971 9.5 8.49585V16.4896C9.5 16.7658 9.27614 16.9896 9 16.9896C8.72386 16.9896 8.5 16.7658 8.5 16.4896V8.49585C8.5 8.21971 8.72386 7.99585 9 7.99585Z" fill="#252525"></path></svg>