<svg width="17" height="17" viewBox="0 0 17 17" fill="none" xmlns="http://www.w3.org/2000/svg"><path fill-rule="evenodd" clip-rule="evenodd" d="M8.5 15.9867C12.6429 15.9867 16 12.6311 16 8.49337C16 4.35563 12.6429 1 8.5 1C4.35713 1 1 4.35563 1 8.49337C1 12.6311 4.35713 15.9867 8.5 15.9867ZM8.5 16.9867C13.1944 16.9867 17 13.1841 17 8.49337C17 3.80261 13.1944 0 8.5 0C3.80558 0 0 3.80261 0 8.49337C0 13.1841 3.80558 16.9867 8.5 16.9867Z" fill="#252525"></path><path fill-rule="evenodd" clip-rule="evenodd" d="M8.5 8.9921C9.88145 8.9921 11 7.8733 11 6.49483C11 5.11636 9.88145 3.99756 8.5 3.99756C7.11855 3.99756 6 5.11636 6 6.49483C6 7.8733 7.11855 8.9921 8.5 8.9921ZM8.5 9.9921C10.433 9.9921 12 8.42632 12 6.49483C12 4.56334 10.433 2.99756 8.5 2.99756C6.567 2.99756 5 4.56334 5 6.49483C5 8.42632 6.567 9.9921 8.5 9.9921Z" fill="#252525"></path><path fill-rule="evenodd" clip-rule="evenodd" d="M3.7615 14.0249C3.56236 14.2504 3.50406 14.4121 3.49604 14.4756L2.50391 14.3505C2.54682 14.0103 2.74314 13.6674 3.01189 13.363C3.28889 13.0493 3.67617 12.7379 4.16944 12.4625C5.15819 11.9105 6.59397 11.4907 8.49998 11.4907C10.406 11.4907 11.8418 11.9105 12.8305 12.4625C13.3238 12.7379 13.7111 13.0493 13.9881 13.363C14.2568 13.6674 14.4531 14.0103 14.496 14.3505L13.5039 14.4756C13.4959 14.4121 13.4376 14.2504 13.2385 14.0249C13.0476 13.8087 12.7537 13.5649 12.343 13.3357C11.5239 12.8784 10.2606 12.4907 8.49998 12.4907C6.73931 12.4907 5.47602 12.8784 4.6569 13.3357C4.24623 13.5649 3.95238 13.8087 3.7615 14.0249Z" fill="#252525"></path></svg>